<svg id="Layer_2" data-name="Layer 2" xmlns="http://www.w3.org/2000/svg" viewBox="0 0 35 35"><defs><style>.cls-1,.cls-5{fill:#e29110;}.cls-2{fill:#ffdb2c;}.cls-3{opacity:0.5;}.cls-4{fill:#fff;}.cls-5{fill-rule:evenodd;}</style></defs><rect class="cls-1" x="0.7" y="16.8" width="33.6" height="1.4"/><rect class="cls-1" x="0.7" y="16.8" width="33.6" height="1.4"/><circle class="cls-1" cx="17.5" cy="18.2" r="16.8"/><circle class="cls-1" cx="17.5" cy="18.2" r="13.69"/><circle class="cls-2" cx="17.5" cy="16.8" r="16.8"/><g class="cls-3"><ellipse class="cls-4" cx="17.5" cy="8.4" rx="14.56" ry="8.4"/></g><circle class="cls-2" cx="17.5" cy="16.49" r="13.69"/><path class="cls-1" d="M17.5,30.49a14,14,0,1,1,14-14A14,14,0,0,1,17.5,30.49Zm0-27.38A13.38,13.38,0,1,0,30.88,16.49,13.39,13.39,0,0,0,17.5,3.11Z"/><path class="cls-1" d="M17.5,4.2a13.7,13.7,0,0,1,13.67,13c0-.23,0-.47,0-.7a13.69,13.69,0,0,0-27.38,0c0,.23,0,.47,0,.7A13.7,13.7,0,0,1,17.5,4.2Z"/><rect class="cls-2" x="17.5" y="16.8" height="1.4"/><rect class="cls-2" x="17.5" y="16.8" height="1.4"/><path class="cls-5" d="M10.5,6.69l.72,1.83a.05.05,0,0,1,0,.07l-.79.31a.06.06,0,0,0,0,.09l1.55,2c0,.05.11,0,.09-.06L11.44,9.5a.05.05,0,0,1,0-.07l.87-.36a.05.05,0,0,0,0-.08L10.59,6.64A.05.05,0,0,0,10.5,6.69Z"/><path class="cls-5" d="M6.8,16.87l1.9-.33a.06.06,0,0,1,.06.05l.15.85s0,.06.08,0l2.18-1.11c.06,0,0-.11,0-.1l-1.45.27a.06.06,0,0,1-.07,0l-.17-.94a.05.05,0,0,0-.07-.05L6.77,16.76A.06.06,0,0,0,6.8,16.87Z"/><path class="cls-5" d="M6.92,11.76l1.63.54s0,0,0,.06l-.23.73s0,.07,0,.07l2.18,0a0,0,0,0,0,0-.09l-1.25-.39a.07.07,0,0,1,0-.07l.25-.8a.05.05,0,0,0,0-.07l-2.56-.11A0,0,0,0,0,6.92,11.76Z"/><path class="cls-5" d="M24.14,21.21l-1.5-9.15a5.09,5.09,0,1,0-10,1.64l1.49,9.15a5.06,5.06,0,0,0,2.05,3.31l.25.16a.28.28,0,0,1,.06.4,1.14,1.14,0,0,0-.22.58A1.09,1.09,0,0,0,17,28.43a.27.27,0,0,1,.19.28l-.07.85c-.18,1.23.05.33.19.28.37-.14.74.27,1.08.46.49.26.74-.14,1.33-.18.23,0,.42-.05.44-.28l.14-.87a.29.29,0,0,1,.22-.25,1.09,1.09,0,0,0,.89-1,1.14,1.14,0,0,0-.2-.72.27.27,0,0,1,.11-.39,5.1,5.1,0,0,0,2.85-5.42Zm-8,3.45a8.62,8.62,0,0,1-.9-3.17.28.28,0,0,1,.22-.29l.25,0a.27.27,0,0,1,.31.21,20.18,20.18,0,0,0,.86,3,2.18,2.18,0,0,0,1,.94.27.27,0,0,1-.21.49,2.47,2.47,0,0,1-1.51-1.17ZM19,28.07l.06-.69a.27.27,0,0,1,.29-.24l.42,0a.27.27,0,0,1,.25.29l0,.42a.27.27,0,0,1-.29.24L19,28.07ZM13.7,13.18c.19,1.32.55,3.29.79,4.54a.27.27,0,0,1-.14.29l-.18.1a.27.27,0,0,1-.4-.19l-.7-4.3a4.61,4.61,0,0,1,7.24-4.48,4.61,4.61,0,0,1,1.38,1.57.27.27,0,0,1-.29.39,11.11,11.11,0,0,0-5.61.65.48.48,0,0,0-.29.61.46.46,0,0,0,.41.32.47.47,0,0,0,.2,0c3.74-1.32,5.89-.41,5.93-.4h0a.26.26,0,0,1,.16.21l0,.12a.27.27,0,0,1-.32.3,10.75,10.75,0,0,0-5.88.6.48.48,0,0,0,.12.93.49.49,0,0,0,.2,0c3.74-1.32,5.89-.4,5.93-.39l0,0a.28.28,0,0,1,.18.21v.06a.27.27,0,0,1-.32.3,10.89,10.89,0,0,0-5.83.61.48.48,0,0,0-.29.61.46.46,0,0,0,.41.32.47.47,0,0,0,.2,0c3.74-1.32,5.9-.41,5.93-.39h0a.27.27,0,0,1,.17.2l.07.47a.26.26,0,0,1-.3.31,13.59,13.59,0,0,0-6.84.69.28.28,0,0,1-.36-.2l-.87-3.87v0a6.77,6.77,0,0,1,0-1.39.27.27,0,0,0-.51-.14,2.16,2.16,0,0,0-.24,1.39Z"/></svg>